<svg width="94" height="29" viewBox="0 0 94 29" fill="none" xmlns="http://www.w3.org/2000/svg">
<path d="M14.5 28H79.5C86.9558 28 93 21.9558 93 14.5C93 7.04416 86.9558 1 79.5 1H47H14.5C7.04416 1 1 7.04416 1 14.5C1 21.9558 7.04416 28 14.5 28Z" fill="#8642CB" stroke="black"/>
<path d="M7.70312 19.8633C7.70312 19.8372 7.70964 19.8014 7.72266 19.7559C7.74219 19.7103 7.78125 19.6745 7.83984 19.6484C7.86589 19.6354 7.89193 19.6289 7.91797 19.6289C7.94401 19.6289 7.97005 19.6289 7.99609 19.6289H8.39648C8.47461 19.6289 8.5625 19.6257 8.66016 19.6191C8.75781 19.6126 8.85547 19.6094 8.95312 19.6094C9.01172 19.6094 9.04427 19.5736 9.05078 19.502C9.0638 19.4303 9.07031 19.3783 9.07031 19.3457V11.2012C9.05078 11.123 8.98242 11.071 8.86523 11.0449C8.74805 11.0124 8.61133 10.9928 8.45508 10.9863C8.30534 10.9733 8.15234 10.9635 7.99609 10.957C7.84635 10.9505 7.72591 10.931 7.63477 10.8984C7.58268 10.8789 7.55664 10.8268 7.55664 10.7422C7.55664 10.7031 7.57943 10.6706 7.625 10.6445C7.63151 10.6315 7.67057 10.6217 7.74219 10.6152C7.8138 10.6087 7.88542 10.6055 7.95703 10.6055H8.43555C9.11263 10.6055 9.73763 10.5924 10.3105 10.5664C10.89 10.5339 11.4531 10.5176 12 10.5176C12.2539 10.5176 12.4883 10.5208 12.7031 10.5273C12.9245 10.5273 13.1296 10.5404 13.3184 10.5664C13.5137 10.5859 13.696 10.6217 13.8652 10.6738C14.041 10.7259 14.2135 10.8008 14.3828 10.8984C14.5781 11.0091 14.7604 11.1361 14.9297 11.2793C15.1055 11.416 15.2552 11.5755 15.3789 11.7578C15.5026 11.9401 15.6003 12.1452 15.6719 12.373C15.7435 12.6009 15.7793 12.8581 15.7793 13.1445C15.7793 13.2943 15.7728 13.4277 15.7598 13.5449C15.7533 13.6556 15.7337 13.7598 15.7012 13.8574C15.6751 13.9551 15.6361 14.0527 15.584 14.1504C15.5319 14.2415 15.4668 14.349 15.3887 14.4727C15.2585 14.6875 15.112 14.873 14.9492 15.0293C14.7865 15.179 14.5749 15.3092 14.3145 15.4199C14.1257 15.498 13.9531 15.5599 13.7969 15.6055C13.6471 15.651 13.4941 15.6901 13.3379 15.7227C13.1882 15.7487 13.0319 15.7682 12.8691 15.7812C12.7129 15.7878 12.5339 15.791 12.332 15.791C12.1562 15.791 11.974 15.7747 11.7852 15.7422C11.5964 15.7096 11.4368 15.6934 11.3066 15.6934C11.248 15.6934 11.1797 15.6966 11.1016 15.7031C11.0299 15.7031 10.9779 15.7161 10.9453 15.7422C10.8477 15.8138 10.7826 15.8919 10.75 15.9766C10.724 16.0547 10.7109 16.1458 10.7109 16.25V19.4727C10.7109 19.5182 10.7467 19.5573 10.8184 19.5898C10.8965 19.6159 10.9583 19.6289 11.0039 19.6289H11.6094C11.7135 19.6289 11.821 19.6387 11.9316 19.6582C12.0423 19.6777 12.1204 19.7005 12.166 19.7266C12.2441 19.7461 12.2832 19.8079 12.2832 19.9121C12.2832 19.9642 12.2507 20 12.1855 20.0195C12.14 20.0456 12.0814 20.0586 12.0098 20.0586C11.9447 20.0651 11.8893 20.0684 11.8438 20.0684C11.7917 20.0684 11.681 20.0651 11.5117 20.0586C11.349 20.0521 11.1699 20.0423 10.9746 20.0293C10.7793 20.0228 10.5938 20.0163 10.418 20.0098C10.2422 20.0033 10.1217 20 10.0566 20H8.875H7.81055C7.77799 20 7.75195 19.987 7.73242 19.9609C7.71289 19.9284 7.70312 19.8958 7.70312 19.8633ZM10.7598 15.4004C10.8574 15.4134 10.9421 15.4264 11.0137 15.4395C11.0853 15.446 11.1504 15.4525 11.209 15.459C11.2741 15.459 11.3359 15.459 11.3945 15.459C11.4596 15.459 11.5312 15.459 11.6094 15.459C11.7461 15.459 11.8958 15.459 12.0586 15.459C12.2214 15.4525 12.3483 15.4329 12.4395 15.4004C12.6413 15.3548 12.8333 15.2539 13.0156 15.0977C13.1979 14.9414 13.3574 14.7591 13.4941 14.5508C13.6309 14.3424 13.7383 14.1211 13.8164 13.8867C13.901 13.6523 13.9434 13.4375 13.9434 13.2422C13.9434 13.099 13.9303 12.9362 13.9043 12.7539C13.8783 12.5716 13.8294 12.4121 13.7578 12.2754C13.6211 12.0085 13.4616 11.7904 13.2793 11.6211C13.097 11.4453 12.8952 11.3086 12.6738 11.2109C12.459 11.1133 12.2214 11.0449 11.9609 11.0059C11.707 10.9668 11.4368 10.9473 11.1504 10.9473C11.0788 10.9473 10.9974 10.9505 10.9062 10.957C10.8216 10.957 10.7728 10.957 10.7598 10.957L10.6621 11.084V15.166C10.6621 15.1921 10.6686 15.2311 10.6816 15.2832C10.7012 15.3353 10.7272 15.3743 10.7598 15.4004ZM20.0957 11.1816V18.8379C20.0957 18.8704 20.099 18.9193 20.1055 18.9844C20.112 19.0495 20.1217 19.1178 20.1348 19.1895C20.1543 19.2546 20.1803 19.3132 20.2129 19.3652C20.2454 19.4173 20.291 19.4434 20.3496 19.4434H21.4238C21.4954 19.4434 21.554 19.4727 21.5996 19.5312C21.6517 19.5898 21.6777 19.6549 21.6777 19.7266C21.6777 19.7852 21.6484 19.847 21.5898 19.9121C21.5312 19.9707 21.4727 20 21.4141 20H18.3477C18.2174 20 18.0872 20.0033 17.957 20.0098C17.8268 20.0228 17.6836 20.0293 17.5273 20.0293C17.4362 20.0293 17.3483 20.026 17.2637 20.0195C17.179 20.013 17.1009 20 17.0293 19.9805C16.9902 19.9544 16.9707 19.8926 16.9707 19.7949C16.9707 19.6582 17.0033 19.5801 17.0684 19.5605C17.2311 19.5345 17.3711 19.515 17.4883 19.502C17.6055 19.4824 17.7292 19.4727 17.8594 19.4727C17.9635 19.4727 18.0352 19.4727 18.0742 19.4727C18.1198 19.4661 18.1719 19.4564 18.2305 19.4434C18.3216 19.4043 18.3672 19.2676 18.3672 19.0332V11.25C18.3672 11.1719 18.3281 11.1035 18.25 11.0449C18.1784 10.9798 18.1068 10.9473 18.0352 10.9473C17.8854 10.9473 17.7682 10.9603 17.6836 10.9863C17.6055 11.0059 17.5013 11.0156 17.3711 11.0156C17.2865 11.0156 17.2018 11.0091 17.1172 10.9961C17.0326 10.9766 16.9479 10.9538 16.8633 10.9277C16.8177 10.9082 16.7949 10.8691 16.7949 10.8105C16.7754 10.7259 16.7819 10.6576 16.8145 10.6055C16.8535 10.5534 16.9056 10.5143 16.9707 10.4883C17.0358 10.4557 17.1074 10.4362 17.1855 10.4297C17.2702 10.4232 17.3483 10.4199 17.4199 10.4199H20.9355C21.1048 10.4199 21.2122 10.4199 21.2578 10.4199C21.3034 10.4199 21.3327 10.4264 21.3457 10.4395C21.4694 10.459 21.5312 10.5306 21.5312 10.6543C21.5312 10.791 21.4564 10.8789 21.3066 10.918C21.1569 10.957 20.9909 10.9798 20.8086 10.9863C20.6328 10.9928 20.4701 11.0059 20.3203 11.0254C20.1706 11.0384 20.0957 11.0905 20.0957 11.1816ZM26.8047 15.4883C26.7721 15.4557 26.7266 15.4036 26.668 15.332C26.6159 15.2539 26.5605 15.1758 26.502 15.0977C26.4499 15.0195 26.3978 14.9479 26.3457 14.8828C26.3001 14.8112 26.2676 14.7591 26.248 14.7266C26.2025 14.6875 26.1341 14.6029 26.043 14.4727C25.9518 14.3359 25.8477 14.1797 25.7305 14.0039C25.6133 13.8281 25.4928 13.6426 25.3691 13.4473C25.2454 13.2454 25.1315 13.0599 25.0273 12.8906C24.9232 12.7148 24.8353 12.5684 24.7637 12.4512C24.6921 12.3275 24.653 12.2526 24.6465 12.2266C24.5098 12.0312 24.3763 11.8392 24.2461 11.6504C24.1159 11.4616 23.9434 11.3216 23.7285 11.2305C23.6764 11.2109 23.5885 11.1947 23.4648 11.1816C23.3411 11.1621 23.2142 11.1426 23.084 11.123C22.9603 11.097 22.8496 11.0645 22.752 11.0254C22.6543 10.9798 22.6055 10.918 22.6055 10.8398C22.6055 10.7161 22.6673 10.6543 22.791 10.6543C22.8561 10.6543 22.9961 10.6641 23.2109 10.6836C23.4323 10.7031 23.6895 10.7129 23.9824 10.7129C24.1908 10.7129 24.4154 10.7096 24.6562 10.7031C24.9036 10.6901 25.151 10.6771 25.3984 10.6641C25.6523 10.6445 25.8965 10.6315 26.1309 10.625C26.3717 10.612 26.5866 10.6055 26.7754 10.6055C26.8665 10.6055 26.9512 10.6152 27.0293 10.6348C27.1074 10.6543 27.1465 10.7227 27.1465 10.8398C27.1465 10.8854 27.1107 10.9212 27.0391 10.9473C26.9674 10.9733 26.8763 10.9961 26.7656 11.0156C26.6615 11.0286 26.5443 11.0417 26.4141 11.0547C26.2904 11.0612 26.1732 11.071 26.0625 11.084C25.9583 11.097 25.8704 11.1133 25.7988 11.1328C25.7272 11.1458 25.6914 11.1686 25.6914 11.2012C25.6914 11.2793 25.7142 11.3411 25.7598 11.3867C25.7728 11.4128 25.8086 11.4681 25.8672 11.5527C25.9258 11.6374 25.9909 11.7285 26.0625 11.8262C26.1341 11.9238 26.1992 12.0117 26.2578 12.0898C26.3164 12.168 26.3522 12.2135 26.3652 12.2266C26.4238 12.3242 26.5052 12.4642 26.6094 12.6465C26.7201 12.8223 26.8372 13.0078 26.9609 13.2031C27.0911 13.3984 27.2246 13.5905 27.3613 13.7793C27.498 13.9616 27.6217 14.1081 27.7324 14.2188C27.8236 14.3099 27.9049 14.3555 27.9766 14.3555C27.9896 14.362 28.0059 14.3587 28.0254 14.3457C28.0449 14.3392 28.071 14.3034 28.1035 14.2383C28.1686 14.1016 28.2598 13.9388 28.377 13.75C28.4941 13.5547 28.6146 13.3561 28.7383 13.1543C28.8685 12.9525 28.9922 12.7539 29.1094 12.5586C29.2266 12.3568 29.321 12.1777 29.3926 12.0215C29.4382 11.9303 29.4707 11.862 29.4902 11.8164C29.5163 11.7643 29.5293 11.709 29.5293 11.6504C29.5293 11.5072 29.487 11.3932 29.4023 11.3086C29.3177 11.224 29.2135 11.1589 29.0898 11.1133C28.9727 11.0612 28.8457 11.0221 28.709 10.9961C28.5788 10.9701 28.4681 10.9408 28.377 10.9082C28.2858 10.8952 28.2402 10.8561 28.2402 10.791C28.2402 10.7389 28.2598 10.6966 28.2988 10.6641C28.3379 10.625 28.3802 10.5957 28.4258 10.5762C28.4779 10.5566 28.5267 10.5436 28.5723 10.5371C28.6178 10.5241 28.6504 10.5176 28.6699 10.5176C28.7676 10.5176 28.8652 10.5241 28.9629 10.5371C29.0671 10.5501 29.1484 10.5566 29.207 10.5566C29.4805 10.5566 29.7832 10.5501 30.1152 10.5371C30.4538 10.5241 30.776 10.5078 31.082 10.4883C31.388 10.4688 31.6549 10.4525 31.8828 10.4395C32.1107 10.4264 32.2539 10.4199 32.3125 10.4199C32.3711 10.4199 32.4329 10.4297 32.498 10.4492C32.5697 10.4622 32.6055 10.5046 32.6055 10.5762C32.6055 10.6543 32.5469 10.7227 32.4297 10.7812C32.319 10.8333 32.1888 10.8822 32.0391 10.9277C31.8958 10.9668 31.7559 10.9993 31.6191 11.0254C31.4824 11.0514 31.388 11.071 31.3359 11.084C31.2057 11.1296 31.0885 11.1751 30.9844 11.2207C30.8867 11.2663 30.7956 11.3184 30.7109 11.377C30.6263 11.429 30.5449 11.4909 30.4668 11.5625C30.3887 11.6276 30.3105 11.7025 30.2324 11.7871C30.1608 11.8783 30.0924 11.9727 30.0273 12.0703C29.9622 12.1615 29.8906 12.2526 29.8125 12.3438C29.7148 12.474 29.6009 12.627 29.4707 12.8027C29.3405 12.9785 29.2103 13.1608 29.0801 13.3496C28.9499 13.5319 28.8262 13.7077 28.709 13.877C28.5918 14.0397 28.4941 14.1732 28.416 14.2773C28.3444 14.349 28.2826 14.4238 28.2305 14.502C28.1849 14.5736 28.1621 14.6615 28.1621 14.7656C28.1621 14.8047 28.1784 14.8568 28.2109 14.9219C28.2435 14.987 28.2858 15.0618 28.3379 15.1465C28.39 15.2246 28.4453 15.306 28.5039 15.3906C28.5625 15.4753 28.6178 15.5534 28.6699 15.625C28.8392 15.8789 29.0085 16.1296 29.1777 16.377C29.347 16.6178 29.526 16.875 29.7148 17.1484C29.9036 17.4154 30.1087 17.7116 30.3301 18.0371C30.5514 18.3561 30.7956 18.724 31.0625 19.1406C31.0885 19.1667 31.1113 19.1927 31.1309 19.2188C31.1504 19.2448 31.1732 19.2643 31.1992 19.2773C31.2708 19.3099 31.3587 19.3392 31.4629 19.3652C31.5736 19.3913 31.6908 19.4173 31.8145 19.4434C31.9382 19.4694 32.0586 19.4987 32.1758 19.5312C32.293 19.5573 32.3971 19.5833 32.4883 19.6094C32.5469 19.6419 32.5794 19.6745 32.5859 19.707C32.599 19.7331 32.6055 19.7754 32.6055 19.834C32.6055 19.873 32.5957 19.9186 32.5762 19.9707C32.5632 20.0228 32.5208 20.0488 32.4492 20.0488C32.0521 20.0488 31.6159 20.0358 31.1406 20.0098C30.6719 19.9902 30.2129 19.9805 29.7637 19.9805C29.5358 19.9805 29.2917 19.9837 29.0312 19.9902C28.7773 19.9967 28.5658 20 28.3965 20C28.2858 20 28.1882 19.9935 28.1035 19.9805C28.0254 19.9609 27.9863 19.8991 27.9863 19.7949C27.9863 19.6712 28.1003 19.5931 28.3281 19.5605C28.4648 19.541 28.6113 19.5312 28.7676 19.5312C28.9434 19.5312 29.0736 19.5085 29.1582 19.4629C29.2233 19.4043 29.2559 19.3424 29.2559 19.2773C29.2559 19.2188 29.2396 19.1732 29.207 19.1406C29.0768 18.9193 28.9434 18.7044 28.8066 18.4961C28.6764 18.2878 28.5365 18.0729 28.3867 17.8516C28.2435 17.6237 28.0872 17.3893 27.918 17.1484C27.7552 16.901 27.5762 16.6309 27.3809 16.3379C27.3353 16.2663 27.2832 16.2207 27.2246 16.2012C27.166 16.1751 27.1237 16.1621 27.0977 16.1621C26.9935 16.1621 26.9154 16.2077 26.8633 16.2988C26.8177 16.3835 26.7656 16.4616 26.707 16.5332C26.5443 16.8132 26.375 17.1061 26.1992 17.4121C26.0299 17.7116 25.8607 18.0436 25.6914 18.4082C25.6458 18.4863 25.6035 18.5775 25.5645 18.6816C25.5254 18.7793 25.5059 18.8574 25.5059 18.916C25.5059 19.0072 25.5449 19.0918 25.623 19.1699C25.7012 19.248 25.7988 19.3197 25.916 19.3848C26.0397 19.4434 26.1699 19.4922 26.3066 19.5312C26.4434 19.5703 26.5703 19.5964 26.6875 19.6094C26.7591 19.6224 26.8047 19.6582 26.8242 19.7168C26.8438 19.7754 26.8535 19.8242 26.8535 19.8633C26.8535 19.9544 26.7754 20 26.6191 20C26.3717 20 26.0853 19.9967 25.7598 19.9902C25.4408 19.9837 25.1152 19.9805 24.7832 19.9805C24.6465 19.9805 24.5 19.9837 24.3438 19.9902C24.194 19.9967 24.0475 20 23.9043 20H23.2598C23.1686 20 23.0775 20 22.9863 20C22.8952 19.9935 22.8496 19.9772 22.8496 19.9512C22.8496 19.86 22.918 19.7917 23.0547 19.7461C23.3542 19.6745 23.6146 19.6126 23.8359 19.5605C24.0573 19.5085 24.2363 19.4303 24.373 19.3262C24.5358 19.209 24.6986 19.056 24.8613 18.8672C25.0241 18.6719 25.1836 18.457 25.3398 18.2227C25.5026 17.9883 25.6621 17.7474 25.8184 17.5C25.9746 17.2526 26.1243 17.015 26.2676 16.7871C26.3587 16.6569 26.4466 16.5169 26.5312 16.3672C26.6224 16.2174 26.7201 16.0775 26.8242 15.9473C26.8568 15.8952 26.873 15.8268 26.873 15.7422C26.873 15.7096 26.8633 15.6673 26.8438 15.6152C26.8307 15.5566 26.8177 15.5143 26.8047 15.4883ZM37.0781 15.1172L38.748 15.0488C39.0085 15.0293 39.207 14.9674 39.3438 14.8633C39.4805 14.7526 39.5814 14.6224 39.6465 14.4727C39.7181 14.3164 39.7702 14.1471 39.8027 13.9648C39.8418 13.7826 39.8971 13.6035 39.9688 13.4277C39.9883 13.3496 40.0208 13.3105 40.0664 13.3105C40.1576 13.3105 40.2031 13.3333 40.2031 13.3789V13.7695C40.2031 14.0299 40.1901 14.3132 40.1641 14.6191C40.1445 14.9186 40.1348 15.1758 40.1348 15.3906C40.1348 15.599 40.151 15.8203 40.1836 16.0547C40.2227 16.2891 40.2422 16.5299 40.2422 16.7773C40.2422 16.8099 40.2389 16.862 40.2324 16.9336C40.2259 17.0052 40.2161 17.0801 40.2031 17.1582C40.1901 17.2363 40.1706 17.3047 40.1445 17.3633C40.125 17.4219 40.0957 17.4512 40.0566 17.4512C39.985 17.4512 39.9395 17.4186 39.9199 17.3535C39.9069 17.2819 39.8939 17.2168 39.8809 17.1582C39.8678 17.0801 39.8451 16.9857 39.8125 16.875C39.7799 16.7643 39.7441 16.6536 39.7051 16.543C39.666 16.4258 39.6302 16.3216 39.5977 16.2305C39.5651 16.1393 39.5423 16.0775 39.5293 16.0449C39.4707 15.9277 39.3568 15.8366 39.1875 15.7715C39.0182 15.6999 38.8262 15.6478 38.6113 15.6152C38.403 15.5762 38.1849 15.5534 37.957 15.5469C37.7357 15.5339 37.5404 15.5273 37.3711 15.5273H37.0781C36.974 15.5273 36.9089 15.5501 36.8828 15.5957C36.8568 15.6348 36.8438 15.6999 36.8438 15.791V19.2188C36.8438 19.4141 36.9056 19.5378 37.0293 19.5898H39.998C40.1283 19.5898 40.2617 19.5898 40.3984 19.5898C40.5417 19.5833 40.6361 19.5671 40.6816 19.541C40.7793 19.515 40.8607 19.4596 40.9258 19.375C40.9974 19.2839 41.056 19.1992 41.1016 19.1211C41.1211 19.0885 41.1569 19.0202 41.209 18.916C41.2676 18.8118 41.3262 18.7012 41.3848 18.584C41.4499 18.4603 41.5085 18.3464 41.5605 18.2422C41.6191 18.138 41.6615 18.0697 41.6875 18.0371C41.7266 17.959 41.7917 17.9199 41.8828 17.9199C41.9414 17.9199 41.9837 17.9427 42.0098 17.9883V19.4434C42.0098 19.502 42.0033 19.5573 41.9902 19.6094C41.9837 19.6549 41.974 19.7135 41.9609 19.7852C41.9349 19.8763 41.9023 19.9382 41.8633 19.9707C41.8242 19.9967 41.7493 20.0228 41.6387 20.0488C40.9811 20.0488 40.3561 20.0456 39.7637 20.0391C39.1777 20.0326 38.582 20.026 37.9766 20.0195C37.3711 20.0195 36.7331 20.0163 36.0625 20.0098C35.3919 20.0033 34.6432 20 33.8164 20C33.7057 20 33.6504 19.9447 33.6504 19.834C33.6504 19.7624 33.6862 19.707 33.7578 19.668C33.8294 19.6289 33.8945 19.6029 33.9531 19.5898C33.9922 19.5898 34.054 19.5866 34.1387 19.5801C34.2298 19.5736 34.3275 19.5703 34.4316 19.5703C34.5358 19.5638 34.6367 19.5573 34.7344 19.5508C34.832 19.5443 34.9167 19.541 34.9883 19.541C35.1445 19.541 35.2227 19.4173 35.2227 19.1699V11.9629C35.2227 11.8522 35.2096 11.7155 35.1836 11.5527C35.1641 11.39 35.1217 11.2533 35.0566 11.1426C35.0111 11.11 34.9883 11.0938 34.9883 11.0938L33.6211 10.957C33.4974 10.957 33.4355 10.8952 33.4355 10.7715C33.4355 10.7389 33.4421 10.6999 33.4551 10.6543C33.4681 10.6022 33.5104 10.5762 33.582 10.5762H35.1836C35.8086 10.5762 36.4238 10.5729 37.0293 10.5664C37.6348 10.5599 38.1914 10.5566 38.6992 10.5566H40.0859C40.1901 10.5566 40.2975 10.5599 40.4082 10.5664C40.5254 10.5664 40.6361 10.5697 40.7402 10.5762C40.8444 10.5762 40.9388 10.5794 41.0234 10.5859C41.1081 10.5859 41.1732 10.5859 41.2188 10.5859C41.2643 10.5924 41.3001 10.6152 41.3262 10.6543C41.3522 10.6934 41.3685 10.7422 41.375 10.8008C41.388 10.8529 41.3945 10.9082 41.3945 10.9668C41.401 11.0189 41.4043 11.0612 41.4043 11.0938V12.6855C41.4043 12.7441 41.3815 12.7734 41.3359 12.7734C41.2643 12.7734 41.209 12.7279 41.1699 12.6367C41.1374 12.5391 41.0853 12.4251 41.0137 12.2949C40.9551 12.1517 40.8835 12.0085 40.7988 11.8652C40.7142 11.722 40.6523 11.6113 40.6133 11.5332C40.5547 11.4225 40.4635 11.3379 40.3398 11.2793C40.2227 11.2142 40.0892 11.1654 39.9395 11.1328C39.7897 11.0938 39.6367 11.0645 39.4805 11.0449C39.3242 11.0254 39.1875 11.0026 39.0703 10.9766C39.0312 10.9766 38.9303 10.9733 38.7676 10.9668C38.6048 10.9603 38.4193 10.957 38.2109 10.957C38.0091 10.9505 37.8073 10.944 37.6055 10.9375C37.4102 10.931 37.2572 10.9277 37.1465 10.9277C37.0098 10.9277 36.9251 10.9668 36.8926 11.0449C36.86 11.123 36.8438 11.2402 36.8438 11.3965V14.8828C36.8438 14.9414 36.8633 14.9967 36.9023 15.0488C36.9479 15.0944 37.0065 15.1172 37.0781 15.1172ZM43.3965 19.8145C43.3965 19.6647 43.4616 19.5801 43.5918 19.5605H43.9629C44.0801 19.5605 44.1875 19.5605 44.2852 19.5605C44.3828 19.554 44.4674 19.541 44.5391 19.5215C44.6107 19.502 44.666 19.4694 44.7051 19.4238C44.7507 19.3783 44.7734 19.3164 44.7734 19.2383V11.3672C44.7734 11.2956 44.7441 11.237 44.6855 11.1914C44.627 11.1393 44.5618 11.1133 44.4902 11.1133H43.7969H43.6113C43.5788 11.1133 43.5397 11.11 43.4941 11.1035C43.4486 11.097 43.3965 11.0905 43.3379 11.084C43.3053 11.071 43.276 11.0449 43.25 11.0059C43.2305 10.9668 43.2207 10.931 43.2207 10.8984C43.2207 10.7747 43.2988 10.7129 43.4551 10.7129H45.8574C45.877 10.7129 45.9258 10.7096 46.0039 10.7031C46.0885 10.6966 46.1764 10.6901 46.2676 10.6836C46.3587 10.6771 46.4401 10.6706 46.5117 10.6641C46.5833 10.6576 46.6257 10.6543 46.6387 10.6543C46.7298 10.6478 46.8307 10.6413 46.9414 10.6348C47.0586 10.6283 47.153 10.625 47.2246 10.625C47.2441 10.625 47.2799 10.6283 47.332 10.6348C47.3841 10.6348 47.4395 10.638 47.498 10.6445C47.5566 10.6445 47.612 10.6478 47.6641 10.6543C47.7227 10.6543 47.7617 10.6543 47.7812 10.6543C47.8724 10.6738 47.918 10.7259 47.918 10.8105C47.918 10.8822 47.8952 10.9538 47.8496 11.0254C47.8105 11.071 47.7487 11.0938 47.6641 11.0938H46.5898C46.5443 11.0938 46.5085 11.1198 46.4824 11.1719C46.4564 11.2174 46.4336 11.276 46.4141 11.3477C46.401 11.4128 46.3913 11.4811 46.3848 11.5527C46.3848 11.6243 46.3848 11.6862 46.3848 11.7383C46.3848 12.0768 46.401 12.4154 46.4336 12.7539C46.4661 13.0859 46.4824 13.4668 46.4824 13.8965V19.2871C46.4824 19.3327 46.4922 19.388 46.5117 19.4531C46.5378 19.5117 46.5801 19.541 46.6387 19.541H49.7637C49.9395 19.541 50.1055 19.4629 50.2617 19.3066C50.418 19.1504 50.5612 18.9681 50.6914 18.7598C50.8281 18.5514 50.9453 18.3464 51.043 18.1445C51.1471 17.9362 51.2318 17.7832 51.2969 17.6855C51.3359 17.64 51.375 17.6172 51.4141 17.6172C51.4466 17.6172 51.4759 17.6465 51.502 17.7051C51.528 17.7962 51.541 17.8776 51.541 17.9492C51.5475 18.0143 51.5508 18.112 51.5508 18.2422C51.5508 18.2943 51.541 18.3724 51.5215 18.4766C51.5085 18.5742 51.4889 18.6784 51.4629 18.7891C51.4434 18.8997 51.4238 19.0072 51.4043 19.1113C51.3913 19.209 51.3848 19.2871 51.3848 19.3457C51.3848 19.3783 51.3848 19.4238 51.3848 19.4824C51.3848 19.5345 51.3815 19.5898 51.375 19.6484C51.375 19.707 51.3717 19.7624 51.3652 19.8145C51.3587 19.86 51.349 19.8926 51.3359 19.9121C51.2448 19.9707 51.1634 20 51.0918 20C50.278 20 49.4089 19.9935 48.4844 19.9805C47.5599 19.9609 46.6387 19.9512 45.7207 19.9512C45.5579 19.9512 45.3887 19.9544 45.2129 19.9609C45.0371 19.9674 44.8678 19.9772 44.7051 19.9902C44.5423 19.9967 44.3861 20.0033 44.2363 20.0098C44.0931 20.0163 43.9694 20.0195 43.8652 20.0195C43.7285 20.0195 43.6146 20.013 43.5234 20C43.4388 19.9805 43.3965 19.9186 43.3965 19.8145ZM55.9551 19.7266C55.9551 19.7005 55.9746 19.6615 56.0137 19.6094C56.0462 19.5573 56.0983 19.5312 56.1699 19.5312C56.2741 19.5312 56.3848 19.515 56.502 19.4824C56.6257 19.4499 56.7428 19.401 56.8535 19.3359C56.9707 19.2643 57.0781 19.1764 57.1758 19.0723C57.2799 18.9616 57.3678 18.8314 57.4395 18.6816L60.0273 12.5488C60.0339 12.5358 60.0469 12.5065 60.0664 12.4609C60.0924 12.4089 60.1055 12.3665 60.1055 12.334C60.1055 12.2624 60.0892 12.1908 60.0566 12.1191C60.0241 12.0475 59.985 11.9824 59.9395 11.9238C59.9004 11.8587 59.8646 11.8034 59.832 11.7578C59.7995 11.7057 59.7832 11.6602 59.7832 11.6211C59.7832 11.556 59.806 11.5039 59.8516 11.4648C59.8971 11.4258 59.9492 11.3965 60.0078 11.377C60.0729 11.3509 60.1413 11.3346 60.2129 11.3281C60.2845 11.3216 60.3464 11.3118 60.3984 11.2988C60.457 11.2728 60.5221 11.2305 60.5938 11.1719C60.6654 11.1068 60.724 11.0547 60.7695 11.0156C60.7891 10.9831 60.8053 10.9408 60.8184 10.8887C60.8314 10.8366 60.8444 10.7878 60.8574 10.7422C60.877 10.6966 60.8997 10.6576 60.9258 10.625C60.9583 10.5924 61.0007 10.5762 61.0527 10.5762C61.1829 10.5762 61.2611 10.6315 61.2871 10.7422L64.0801 19.1016C64.1191 19.2253 64.1615 19.3229 64.207 19.3945C64.2591 19.4596 64.321 19.5085 64.3926 19.541C64.4642 19.5736 64.5423 19.5931 64.627 19.5996C64.7181 19.6061 64.8223 19.6094 64.9395 19.6094H65.291C65.3496 19.6094 65.3952 19.6159 65.4277 19.6289C65.4603 19.6289 65.4961 19.6517 65.5352 19.6973C65.5807 19.7428 65.6035 19.7819 65.6035 19.8145C65.6035 19.9186 65.5449 19.974 65.4277 19.9805C65.4147 19.9935 65.3691 20 65.291 20H64.7344C64.5456 20 64.3275 19.9902 64.0801 19.9707C63.8327 19.9447 63.5853 19.9316 63.3379 19.9316C62.9342 19.9316 62.5436 19.9447 62.166 19.9707C61.7884 19.9902 61.4531 20 61.1602 20C61.1276 20 61.0918 19.9935 61.0527 19.9805C61.0202 19.9674 61.0039 19.9414 61.0039 19.9023C61.0039 19.8633 61.0202 19.8242 61.0527 19.7852C61.0853 19.7461 61.1243 19.7103 61.1699 19.6777C61.2155 19.6387 61.2643 19.6094 61.3164 19.5898C61.375 19.5703 61.4271 19.5605 61.4727 19.5605C61.5378 19.5605 61.6029 19.5638 61.668 19.5703C61.7331 19.5768 61.8047 19.5801 61.8828 19.5801C62.0911 19.5801 62.2604 19.5573 62.3906 19.5117C62.5013 19.4727 62.5566 19.3945 62.5566 19.2773C62.5566 19.2643 62.5534 19.248 62.5469 19.2285C62.5404 19.209 62.5339 19.1797 62.5273 19.1406C62.5013 19.082 62.459 18.9746 62.4004 18.8184C62.3418 18.6556 62.2799 18.4798 62.2148 18.291C62.1497 18.1022 62.0846 17.9199 62.0195 17.7441C61.9609 17.5684 61.9154 17.4316 61.8828 17.334C61.8568 17.2754 61.8275 17.2201 61.7949 17.168C61.7689 17.1094 61.7201 17.0801 61.6484 17.0801H58.9043C58.7415 17.0801 58.6374 17.1582 58.5918 17.3145L58.2012 18.7305C58.1882 18.776 58.1784 18.8151 58.1719 18.8477C58.1654 18.8802 58.1621 18.9258 58.1621 18.9844C58.1621 19.0885 58.1686 19.1732 58.1816 19.2383C58.2012 19.2969 58.2272 19.3457 58.2598 19.3848C58.2988 19.4238 58.3477 19.4531 58.4062 19.4727C58.4714 19.4857 58.5527 19.4987 58.6504 19.5117C58.6829 19.5117 58.735 19.5182 58.8066 19.5312C58.8848 19.5378 58.9661 19.5475 59.0508 19.5605C59.1354 19.5736 59.2135 19.5866 59.2852 19.5996C59.3633 19.6061 59.4186 19.6094 59.4512 19.6094C59.4837 19.6224 59.5293 19.6549 59.5879 19.707C59.653 19.7526 59.6855 19.8047 59.6855 19.8633C59.6855 19.8958 59.6725 19.9284 59.6465 19.9609C59.6204 19.987 59.5716 20 59.5 20H59.1973C59.0931 20 58.9499 19.9967 58.7676 19.9902C58.5918 19.9837 58.4128 19.9805 58.2305 19.9805C58.0547 19.9805 57.8431 19.9837 57.5957 19.9902C57.3483 19.9967 57.0944 20 56.834 20C56.8014 20 56.7363 19.9967 56.6387 19.9902C56.541 19.9772 56.4401 19.9609 56.3359 19.9414C56.2383 19.9154 56.1504 19.8861 56.0723 19.8535C55.9941 19.8145 55.9551 19.7721 55.9551 19.7266ZM58.9727 16.2109C58.9661 16.224 58.9629 16.2598 58.9629 16.3184V16.3672C58.9629 16.4388 58.9824 16.5007 59.0215 16.5527C59.0671 16.5983 59.1257 16.6211 59.1973 16.6211C59.5944 16.6211 59.9688 16.6374 60.3203 16.6699C60.6784 16.696 61.0234 16.709 61.3555 16.709C61.4271 16.709 61.4824 16.6895 61.5215 16.6504C61.5605 16.6048 61.5801 16.5625 61.5801 16.5234V16.416C61.5801 16.403 61.5768 16.39 61.5703 16.377C61.5573 16.3574 61.5475 16.3249 61.541 16.2793L60.4961 13.3105C60.444 13.1738 60.3822 13.1055 60.3105 13.1055C60.278 13.1055 60.2422 13.1185 60.2031 13.1445C60.1641 13.1706 60.138 13.1966 60.125 13.2227L58.9727 16.2109ZM69.168 11.2109C69.168 11.237 69.1712 11.3021 69.1777 11.4062C69.1842 11.5104 69.1908 11.6211 69.1973 11.7383C69.2103 11.8555 69.2201 11.9661 69.2266 12.0703C69.2331 12.1745 69.2363 12.2396 69.2363 12.2656V14.834C69.2363 14.9512 69.2754 15.0293 69.3535 15.0684C69.3665 15.0684 69.4023 15.0716 69.4609 15.0781C69.5195 15.0846 69.5814 15.0911 69.6465 15.0977C69.7181 15.0977 69.7865 15.1009 69.8516 15.1074C69.9232 15.1139 69.9785 15.1172 70.0176 15.1172C70.2389 15.1172 70.4473 15.0846 70.6426 15.0195C70.9681 14.9414 71.2513 14.8535 71.4922 14.7559C71.7331 14.6517 71.9316 14.515 72.0879 14.3457C72.2507 14.1764 72.3711 13.9616 72.4492 13.7012C72.5273 13.4408 72.5664 13.1087 72.5664 12.7051C72.5664 12.1712 72.3874 11.7253 72.0293 11.3672C71.7559 11.0872 71.4368 10.8984 71.0723 10.8008C70.7077 10.7031 70.2812 10.6543 69.793 10.6543C69.6172 10.6543 69.4674 10.6999 69.3438 10.791C69.2266 10.8822 69.168 11.0221 69.168 11.2109ZM72.1074 19.7852C72.1074 19.681 72.1693 19.6126 72.293 19.5801H73.0254C73.084 19.5671 73.1426 19.5605 73.2012 19.5605C73.2598 19.554 73.3021 19.5378 73.3281 19.5117C73.3607 19.4922 73.377 19.4694 73.377 19.4434C73.377 19.4173 73.3607 19.3783 73.3281 19.3262C72.8789 18.7207 72.4264 18.1152 71.9707 17.5098C71.5215 16.9043 71.0625 16.2923 70.5938 15.6738C70.5677 15.6478 70.5352 15.6185 70.4961 15.5859C70.4635 15.5534 70.4342 15.5371 70.4082 15.5371L69.4219 15.4199H69.3926C69.2884 15.4199 69.2363 15.4818 69.2363 15.6055V18.5938C69.2363 18.8477 69.2656 19.043 69.3242 19.1797C69.3893 19.3099 69.4674 19.4043 69.5586 19.4629C69.6497 19.515 69.7507 19.5443 69.8613 19.5508C69.9785 19.5573 70.0859 19.5605 70.1836 19.5605C70.2943 19.5605 70.3887 19.5703 70.4668 19.5898C70.5514 19.6094 70.5938 19.6842 70.5938 19.8145C70.5938 19.8926 70.5579 19.9447 70.4863 19.9707C70.4147 19.9902 70.3431 20 70.2715 20H66.3652C66.3066 20 66.2513 19.9837 66.1992 19.9512C66.1536 19.9186 66.1309 19.873 66.1309 19.8145C66.1309 19.7428 66.1764 19.681 66.2676 19.6289C66.3327 19.6094 66.4401 19.5964 66.5898 19.5898C66.7461 19.5768 66.9023 19.5638 67.0586 19.5508C67.2148 19.5378 67.3516 19.5182 67.4688 19.4922C67.5924 19.4596 67.6543 19.4108 67.6543 19.3457V19.0039C67.6543 18.6979 67.651 18.418 67.6445 18.1641C67.638 17.9102 67.6315 17.653 67.625 17.3926C67.625 17.1257 67.6217 16.8424 67.6152 16.543C67.6087 16.2435 67.6055 15.8984 67.6055 15.5078V12.4023V11.1621C67.5924 11.1361 67.5827 11.097 67.5762 11.0449C67.5762 10.9863 67.5632 10.9408 67.5371 10.9082C67.5241 10.8952 67.5078 10.8854 67.4883 10.8789C67.4753 10.8724 67.4622 10.8659 67.4492 10.8594C67.4297 10.8529 67.4167 10.8464 67.4102 10.8398H66.502C66.4303 10.8398 66.3555 10.8236 66.2773 10.791C66.2057 10.7585 66.1569 10.7129 66.1309 10.6543C66.1243 10.6478 66.1211 10.638 66.1211 10.625C66.1146 10.6185 66.1113 10.6055 66.1113 10.5859C66.1113 10.5469 66.1211 10.5013 66.1406 10.4492C66.1667 10.3971 66.209 10.3711 66.2676 10.3711H71.1992C71.6484 10.3711 72.0684 10.4199 72.459 10.5176C72.8561 10.6087 73.2012 10.7585 73.4941 10.9668C73.7871 11.1751 74.0182 11.4486 74.1875 11.7871C74.3568 12.1191 74.4414 12.526 74.4414 13.0078C74.4414 13.3268 74.4186 13.5905 74.373 13.7988C74.3275 14.0007 74.2559 14.1732 74.1582 14.3164C74.0605 14.4596 73.9368 14.5866 73.7871 14.6973C73.6374 14.8079 73.4616 14.9316 73.2598 15.0684C73.2207 15.1009 73.1621 15.1335 73.084 15.166C73.0124 15.1986 72.9408 15.2311 72.8691 15.2637C72.7975 15.2897 72.7357 15.319 72.6836 15.3516C72.6315 15.3841 72.6055 15.4199 72.6055 15.459C72.6055 15.4915 72.651 15.5794 72.7422 15.7227C72.8398 15.8594 72.957 16.0254 73.0938 16.2207C73.237 16.416 73.3932 16.6243 73.5625 16.8457C73.7383 17.0605 73.901 17.2656 74.0508 17.4609C74.207 17.6562 74.3405 17.8255 74.4512 17.9688C74.5684 18.1055 74.6432 18.1901 74.6758 18.2227C74.8516 18.3984 75.0273 18.5645 75.2031 18.7207C75.3854 18.8704 75.5742 19.0072 75.7695 19.1309C75.9714 19.2546 76.1829 19.362 76.4043 19.4531C76.6257 19.5378 76.8633 19.5964 77.1172 19.6289C77.1693 19.7201 77.1953 19.7982 77.1953 19.8633C77.1953 19.9219 77.1823 19.9609 77.1562 19.9805C77.1367 19.9935 77.0814 20 76.9902 20H73.2598H72.6836C72.6641 20 72.6217 20 72.5566 20C72.498 19.9935 72.4329 19.9837 72.3613 19.9707C72.2962 19.9577 72.2376 19.9382 72.1855 19.9121C72.1335 19.8796 72.1074 19.8372 72.1074 19.7852ZM78.8555 19.8438C78.8555 19.7461 78.8945 19.6777 78.9727 19.6387C79.0508 19.5931 79.1354 19.5573 79.2266 19.5312C79.2656 19.5312 79.3242 19.528 79.4023 19.5215C79.487 19.515 79.5749 19.5085 79.666 19.502C79.7572 19.4954 79.8418 19.4889 79.9199 19.4824C79.998 19.4759 80.0534 19.4727 80.0859 19.4727C80.2161 19.4596 80.2812 19.3978 80.2812 19.2871V11.6211C80.2812 11.6016 80.278 11.569 80.2715 11.5234C80.2715 11.4779 80.2682 11.429 80.2617 11.377C80.2552 11.3249 80.2487 11.2728 80.2422 11.2207C80.2357 11.1686 80.2292 11.1328 80.2227 11.1133C80.2227 11.1003 80.2194 11.0807 80.2129 11.0547C80.2064 11.0286 80.1868 11.0091 80.1543 10.9961C80.1348 10.9961 80.1022 10.9961 80.0566 10.9961C80.0111 10.9896 79.9622 10.9863 79.9102 10.9863C79.8581 10.9863 79.8092 10.9863 79.7637 10.9863C79.7181 10.9798 79.6855 10.9766 79.666 10.9766H79.2949C79.1908 10.9766 79.0768 10.9798 78.9531 10.9863C78.8294 10.9928 78.7057 11.0026 78.582 11.0156C78.4648 11.0221 78.3574 11.0352 78.2598 11.0547C78.1621 11.0677 78.084 11.0872 78.0254 11.1133C77.9147 11.1589 77.8008 11.2533 77.6836 11.3965C77.5729 11.5332 77.4622 11.6797 77.3516 11.8359C77.2474 11.9857 77.1432 12.1191 77.0391 12.2363C76.9414 12.3535 76.8503 12.4121 76.7656 12.4121C76.6289 12.4121 76.5605 12.3405 76.5605 12.1973V12.1484C76.6322 11.9076 76.7038 11.6667 76.7754 11.4258C76.8535 11.1849 76.9219 10.9408 76.9805 10.6934C76.9935 10.6348 77.0065 10.5436 77.0195 10.4199C77.0391 10.2897 77.0651 10.1595 77.0977 10.0293C77.1302 9.89258 77.1758 9.77539 77.2344 9.67773C77.293 9.57357 77.3711 9.52148 77.4688 9.52148C77.5469 9.52148 77.6087 9.55404 77.6543 9.61914C77.6999 9.67773 77.7389 9.74935 77.7715 9.83398C77.8105 9.91211 77.8529 9.99023 77.8984 10.0684C77.944 10.14 78.0059 10.1855 78.084 10.2051C78.3444 10.2311 78.5592 10.2474 78.7285 10.2539C78.8978 10.2539 79.0703 10.2539 79.2461 10.2539H79.6562C80.3333 10.2539 80.9941 10.2474 81.6387 10.2344C82.2832 10.2148 82.944 10.2051 83.6211 10.2051H84.1289C84.2526 10.2051 84.3307 10.1595 84.3633 10.0684C84.3763 10.0488 84.3893 10.0163 84.4023 9.9707C84.4219 9.91862 84.4382 9.86328 84.4512 9.80469C84.4707 9.74609 84.487 9.69076 84.5 9.63867C84.5195 9.58008 84.5358 9.54102 84.5488 9.52148C84.5749 9.48242 84.6107 9.45964 84.6562 9.45312C84.7018 9.44661 84.7409 9.44336 84.7734 9.44336C84.832 9.44336 84.8711 9.44661 84.8906 9.45312C84.9167 9.45964 84.9427 9.48242 84.9688 9.52148C85.0664 9.67122 85.1445 9.83724 85.2031 10.0195C85.2617 10.1953 85.3171 10.3776 85.3691 10.5664C85.4212 10.7487 85.4733 10.931 85.5254 11.1133C85.5775 11.2956 85.6426 11.4648 85.7207 11.6211C85.7337 11.6536 85.7533 11.6927 85.7793 11.7383C85.8053 11.7773 85.8314 11.8197 85.8574 11.8652C85.8835 11.9043 85.9062 11.9401 85.9258 11.9727C85.9518 12.0052 85.9681 12.028 85.9746 12.041C85.9811 12.0671 85.9941 12.1191 86.0137 12.1973C86.0397 12.2689 86.0527 12.3372 86.0527 12.4023C86.0527 12.4414 86.043 12.4609 86.0234 12.4609C85.8932 12.4609 85.7533 12.4121 85.6035 12.3145C85.4603 12.2103 85.3138 12.0931 85.1641 11.9629C85.0208 11.8262 84.8776 11.6927 84.7344 11.5625C84.5977 11.4258 84.474 11.3216 84.3633 11.25C84.2917 11.2044 84.1875 11.1654 84.0508 11.1328C83.9141 11.0938 83.7676 11.0612 83.6113 11.0352C83.4551 11.0091 83.3053 10.9896 83.1621 10.9766C83.0189 10.9635 82.9082 10.957 82.8301 10.957H82.6445C82.5859 10.957 82.5241 10.9603 82.459 10.9668C82.3939 10.9733 82.332 10.9863 82.2734 11.0059C82.2148 11.0254 82.166 11.0547 82.127 11.0938C82.0879 11.1328 82.0684 11.1849 82.0684 11.25V16.3672C82.0684 16.6667 82.0586 16.9531 82.0391 17.2266C82.026 17.4935 82.0195 17.7409 82.0195 17.9688C82.0195 18.0469 82.0195 18.1543 82.0195 18.291C82.026 18.4277 82.0326 18.571 82.0391 18.7207C82.0456 18.8639 82.0521 19.0007 82.0586 19.1309C82.0716 19.2611 82.0846 19.3587 82.0977 19.4238H83.2695C83.3672 19.4238 83.4616 19.4596 83.5527 19.5312C83.6439 19.5964 83.6895 19.6842 83.6895 19.7949C83.6895 19.8275 83.6829 19.8698 83.6699 19.9219C83.6569 19.974 83.6309 20 83.5918 20H79.9199H79.3633H78.9922C78.9206 20 78.8783 19.9902 78.8652 19.9707C78.8587 19.9512 78.8555 19.9089 78.8555 19.8438Z" fill="black"/>
</svg>
